<svg width="30" height="30" viewBox="0 0 30 30" fill="none" xmlns="http://www.w3.org/2000/svg">
    <path
        d="M20.3306 24.5044L11.685 15.72C11.4954 15.5283 11.389 15.2696 11.389 15C11.389 14.7304 11.4954 14.4717 11.685 14.28L20.3288 5.49561C20.5183 5.30276 20.6245 5.04319 20.6245 4.7728C20.6245 4.50241 20.5183 4.24284 20.3288 4.04999C20.2362 3.95502 20.1255 3.87955 20.0033 3.82802C19.8811 3.77649 19.7498 3.74994 19.6172 3.74994C19.4846 3.74994 19.3533 3.77649 19.2311 3.82802C19.1089 3.87955 18.9982 3.95502 18.9056 4.04999L10.2619 12.8325C9.6939 13.411 9.37567 14.1893 9.37567 15C9.37567 15.8107 9.6939 16.589 10.2619 17.1675L18.9056 25.95C18.9982 26.0452 19.109 26.121 19.2314 26.1727C19.3538 26.2244 19.4853 26.251 19.6181 26.251C19.751 26.251 19.8825 26.2244 20.0049 26.1727C20.1272 26.121 20.238 26.0452 20.3306 25.95C20.5201 25.7571 20.6263 25.4976 20.6263 25.2272C20.6263 24.9568 20.5201 24.6972 20.3306 24.5044Z"
        fill="white" />
</svg>
