<svg width="30" height="30" viewBox="0 0 30 30" fill="none" xmlns="http://www.w3.org/2000/svg">
    <path
        d="M7.14687 3.18812C6.0575 3.445 5.39437 4.39062 5.31187 5.5075C5.17375 7.36437 5 10.7919 5 16.25C5 20.5912 5.06312 23.4287 5.14437 25.2819C5.23 27.2487 6.7525 27.9131 8.39875 26.8319L12.9425 23.8506C13.5537 23.4495 14.2689 23.2358 15 23.2358C15.7311 23.2358 16.4463 23.4495 17.0575 23.8506L21.6019 26.8319C23.2475 27.9131 24.77 27.2487 24.8556 25.2819C24.9362 23.4287 25 20.5912 25 16.25C25 10.7919 24.8256 7.36437 24.6881 5.5075C24.6056 4.39062 23.9425 3.445 22.8531 3.1875C21.445 2.85625 19.0012 2.5 15 2.5C10.9987 2.5 8.555 2.85562 7.14687 3.18812Z"
        stroke="white" stroke-width="1.5" stroke-linecap="round" stroke-linejoin="round" />
</svg>
