<svg width="30" height="30" viewBox="0 0 30 30" fill="none" xmlns="http://www.w3.org/2000/svg">
    <path
        d="M15 1.5625C10.945 1.5625 8.4275 1.92313 6.93187 2.275C5.36625 2.64438 4.48312 3.99938 4.37687 5.43813C4.23687 7.32188 4.0625 10.7725 4.0625 16.25C4.0625 20.5988 4.12625 23.4512 4.2075 25.3225C4.26062 26.5331 4.77875 27.5806 5.79188 28.0506C6.78188 28.5094 7.92438 28.265 8.9125 27.6163L13.4569 24.6338C13.9153 24.3329 14.4517 24.1726 15 24.1726C15.5483 24.1726 16.0847 24.3329 16.5431 24.6338L21.0869 27.6163C22.0756 28.265 23.2181 28.5094 24.2081 28.0506C25.2206 27.5806 25.7394 26.5331 25.7925 25.3225C25.8738 23.4512 25.9375 20.5988 25.9375 16.25C25.9375 10.7725 25.7625 7.32188 25.6231 5.43813C25.5169 3.99938 24.6338 2.64438 23.0681 2.27563C21.5725 1.92313 19.055 1.5625 15 1.5625Z"
        fill="white" />
</svg>
