<svg width="28" height="28" viewBox="0 0 28 28" fill="none" xmlns="http://www.w3.org/2000/svg">
    <g clip-path="url(#clip0_30524_63)">
        <path fill-rule="evenodd" clip-rule="evenodd"
            d="M13.1127 0.0263614L12.4372 0.0963614C9.15949 0.423611 5.85724 2.11411 3.62424 4.60961C1.15499 7.36936 -0.0997637 10.7941 0.0157363 14.4429C0.216986 20.7446 4.54824 26.0804 10.6925 27.5994C12.5015 28.0366 14.3793 28.1101 16.2169 27.8157C18.0545 27.5213 19.8154 26.8648 21.3972 25.8844C24.5084 23.9459 26.7351 20.8646 27.5992 17.3024C27.9002 16.0756 27.9702 15.4509 27.9702 14.0001C27.9702 12.5494 27.9002 11.9246 27.5992 10.6979C26.2132 5.03661 21.5512 0.871611 15.75 0.112111C15.253 0.0473614 13.4452 -0.0103886 13.1127 0.0263614ZM15.4927 2.73536C17.4589 2.99263 19.3236 3.7594 20.902 4.95961C21.4777 5.39011 22.61 6.52236 23.0405 7.09811C24.0222 8.41236 24.7485 9.95761 25.0775 11.4364C25.4501 13.1252 25.4501 14.875 25.0775 16.5639C24.353 19.8206 22.0587 22.7116 19.0172 24.1991C17.9203 24.7347 16.7475 25.0983 15.54 25.2771C14.798 25.3909 13.202 25.3909 12.46 25.2771C9.05099 24.7591 6.17399 22.8989 4.36274 20.0394C3.9172 19.3007 3.54557 18.5199 3.25324 17.7084C2.83788 16.5168 2.63356 15.2619 2.64949 14.0001C2.64949 12.1819 3.00124 10.6314 3.77999 9.03011C4.37499 7.80861 4.98049 6.96511 5.97274 5.97286C6.85149 5.06384 7.8872 4.321 9.02999 3.78011C11.0337 2.80107 13.2826 2.43752 15.4927 2.73536ZM13.4855 7.50761C13.0935 7.63536 12.8712 7.85936 12.7627 8.23386C12.6997 8.44736 12.6927 8.93561 12.7032 11.9281C12.7172 15.3756 12.7172 15.3774 12.8187 15.5681C12.9536 15.8113 13.1671 16.0014 13.4242 16.1071C13.6552 16.1876 14.3447 16.1876 14.5757 16.1071C14.8329 16.0014 15.0464 15.8113 15.1812 15.5681C15.2827 15.3774 15.2827 15.3756 15.2967 11.9281C15.3107 8.16211 15.3107 8.15861 15.043 7.84186C14.826 7.58286 14.5932 7.49711 14.07 7.48311C13.8748 7.47206 13.679 7.48026 13.4855 7.50761ZM13.6255 18.4276C13.2755 18.5531 12.9844 18.8037 12.8082 19.1311C12.682 19.445 12.6666 19.7925 12.7645 20.1164C12.8597 20.3695 13.028 20.5886 13.2479 20.746C13.4679 20.9033 13.7297 20.9918 14 21.0001C14.5302 21.0001 15.071 20.6151 15.2355 20.1164C15.3334 19.7925 15.3179 19.445 15.1917 19.1311C15.0467 18.8756 14.8366 18.663 14.5827 18.5151C14.3797 18.4101 13.832 18.3594 13.6255 18.4276Z"
            fill="#ED5050" />
    </g>
    <defs>
        <clipPath id="clip0_30524_63">
            <rect width="28" height="28" fill="white" />
        </clipPath>
    </defs>
</svg>
