<svg width="24" height="24" viewBox="0 0 24 24" fill="none" xmlns="http://www.w3.org/2000/svg">
    <path
        d="M15.25 2H8.75C6.9606 2.00265 5.24525 2.71465 3.97995 3.97995C2.71465 5.24525 2.00265 6.9606 2 8.75V15.25C2.00265 17.0394 2.71465 18.7548 3.97995 20.0201C5.24525 21.2853 6.9606 21.9974 8.75 22H15.25C17.0394 21.9974 18.7548 21.2853 20.0201 20.0201C21.2853 18.7548 21.9974 17.0394 22 15.25V8.75C21.9974 6.9606 21.2853 5.24525 20.0201 3.97995C18.7548 2.71465 17.0394 2.00265 15.25 2ZM16.51 15.44C16.4944 15.96 16.2768 16.4534 15.9034 16.8156C15.53 17.1778 15.0302 17.3802 14.51 17.38H9.51C8.9898 17.3802 8.48998 17.1778 8.11658 16.8156C7.74319 16.4534 7.52561 15.96 7.51 15.44V12C7.52346 11.5819 7.66771 11.1785 7.92244 10.8466C8.17717 10.5147 8.52956 10.2711 8.93 10.15V9.71C8.93076 9.30462 9.01153 8.90338 9.16769 8.52929C9.32385 8.15519 9.55232 7.81561 9.84 7.53C10.4288 6.97226 11.209 6.66141 12.02 6.66141C12.831 6.66141 13.6112 6.97226 14.2 7.53C14.4886 7.81494 14.7176 8.1544 14.8738 8.52865C15.0301 8.90289 15.1103 9.30446 15.11 9.71V10.15C15.5104 10.2711 15.8628 10.5147 16.1176 10.8466C16.3723 11.1785 16.5165 11.5819 16.53 12L16.51 15.44Z"
        fill="white" />
    <path
        d="M13.5 9.70996V10.06H10.5V9.70996C10.5 9.31214 10.658 8.93061 10.9393 8.6493C11.2206 8.368 11.6022 8.20996 12 8.20996C12.3978 8.20996 12.7794 8.368 13.0607 8.6493C13.342 8.93061 13.5 9.31214 13.5 9.70996Z"
        fill="white" />
</svg>
