<svg width="24" height="24" viewBox="0 0 24 24" fill="none" xmlns="http://www.w3.org/2000/svg">
    <path
        d="M21.963 18.855C21.8295 19.4288 21.5146 19.9443 21.065 20.325C20.5631 20.8355 19.964 21.2402 19.3031 21.5154C18.6422 21.7905 17.9329 21.9305 17.217 21.927H16.859C15.3731 21.8496 13.9167 21.482 12.572 20.845C12.246 20.692 11.929 20.549 11.552 20.375C9.97604 19.4849 8.52957 18.383 7.25299 17.1C5.59353 15.5437 4.23369 13.6961 3.24099 11.649C2.69447 10.5322 2.32633 9.33674 2.14999 8.106C1.90361 6.8235 2.04927 5.49652 2.56799 4.298C2.89065 3.75388 3.28558 3.25602 3.74199 2.818C3.95046 2.59058 4.20255 2.40742 4.48327 2.27943C4.76398 2.15144 5.06758 2.08124 5.37599 2.073C5.71228 2.10854 6.03809 2.21089 6.3343 2.37402C6.63051 2.53715 6.89117 2.75779 7.10099 3.023C7.57099 3.543 8.12099 4.043 8.62099 4.573L9.26499 5.207C9.64499 5.54 9.87999 6.009 9.91799 6.513C9.91899 6.977 9.74798 7.424 9.43798 7.769C9.24278 8.01092 9.03516 8.24256 8.81599 8.463L8.60099 8.688C8.47577 8.80435 8.37807 8.94714 8.31498 9.106C8.26298 9.26 8.24499 9.424 8.26499 9.586C8.42899 10.03 8.68599 10.434 9.01999 10.77C9.53999 11.474 10.04 12.087 10.602 12.812C11.5713 13.9303 12.7204 14.879 14.002 15.619C14.125 15.719 14.272 15.786 14.43 15.813C14.57 15.834 14.711 15.813 14.838 15.751C15.2274 15.5426 15.5738 15.2623 15.859 14.925C16.219 14.481 16.741 14.199 17.309 14.138C17.5816 14.139 17.8513 14.1947 18.1021 14.3017C18.3528 14.4087 18.5796 14.5649 18.769 14.761C19.0023 14.9623 19.2233 15.1767 19.432 15.404L19.738 15.731L20.055 16.037C20.248 16.231 20.432 16.405 20.615 16.609C20.9483 16.8957 21.2583 17.2053 21.545 17.538C21.838 17.912 21.986 18.38 21.963 18.855Z"
        fill="white" />
</svg>
