<svg width="24" height="24" viewBox="0 0 24 24" fill="none" xmlns="http://www.w3.org/2000/svg">
    <path
        d="M12.01 4.25598C9.93555 4.19514 7.89685 4.80538 6.197 5.99598C4.41391 7.24383 3.0291 8.98005 2.209 10.996C2.07389 11.3122 2.00285 11.6521 2 11.996C2.004 12.339 2.072 12.678 2.2 12.996C2.81149 14.4415 3.70995 15.7478 4.841 16.836L8.431 13.146C8.18124 12.3892 8.17837 11.5727 8.42281 10.8142C8.66725 10.0557 9.14636 9.39449 9.791 8.92598C10.2704 8.57845 10.8256 8.35003 11.4107 8.25961C11.9958 8.16919 12.5941 8.21936 13.156 8.40598L16.386 5.16598C15.023 4.51142 13.521 4.19907 12.01 4.25598ZM21.79 10.976C21.0228 9.1017 19.7659 7.46806 18.151 6.24598L14.811 9.55598C15.4061 10.2291 15.7329 11.0975 15.729 11.996C15.729 12.992 15.335 13.946 14.634 14.652C14.2876 15.0009 13.8757 15.2781 13.422 15.4678C12.9683 15.6574 12.4817 15.7556 11.99 15.757C11.09 15.762 10.22 15.435 9.547 14.837L6.317 18.077C7.97382 19.2169 9.94965 19.8016 11.96 19.747H12.26C14.2434 19.7459 16.1785 19.135 17.803 17.997C19.5873 16.7504 20.9724 15.0138 21.791 12.997C21.927 12.681 21.998 12.341 22 11.997C21.9969 11.6466 21.9255 11.3001 21.79 10.977"
        fill="white" />
</svg>
