<svg width="24" height="24" viewBox="0 0 24 24" fill="none" xmlns="http://www.w3.org/2000/svg">
    <path
        d="M21.79 10.993C20.9662 8.97753 19.5805 7.24129 17.798 5.99098C16.0773 4.85598 14.0613 4.25098 12 4.25098C9.93868 4.25098 7.9227 4.85598 6.202 5.99098C4.41713 7.23879 3.03086 8.9758 2.21 10.993C2.07454 11.3091 2.00317 11.649 2 11.993C2.004 12.336 2.072 12.676 2.2 12.993C3.02069 15.0105 4.40698 16.7479 6.192 17.996C7.87597 19.1854 9.89902 19.7992 11.96 19.746H12.26C14.2396 19.7498 16.1726 19.1459 17.798 18.016C19.5829 16.7682 20.9691 15.0312 21.79 13.014C21.9268 12.6982 21.9982 12.3581 22 12.014C21.997 11.6632 21.9257 11.3164 21.79 10.993ZM12.02 15.775C11.2767 15.7768 10.5496 15.5578 9.93108 15.1456C9.31253 14.7334 8.83043 14.1467 8.546 13.46C8.26057 12.7728 8.1849 12.0165 8.3285 11.2863C8.47211 10.5562 8.82858 9.8849 9.353 9.35698C9.87726 8.82939 10.5466 8.46962 11.2758 8.3234C12.0051 8.17719 12.7614 8.25114 13.4485 8.53585C14.1356 8.82056 14.7226 9.30318 15.1347 9.92233C15.5468 10.5415 15.7655 11.2692 15.763 12.013C15.7643 12.5097 15.6671 13.0018 15.4771 13.4608C15.2871 13.9197 15.008 14.3365 14.656 14.687C14.3044 15.0367 13.8867 15.313 13.4273 15.4998C12.9679 15.6866 12.4759 15.7801 11.98 15.775H12.02Z"
        fill="white" />
</svg>
